<svg width="32" height="32" viewBox="0 0 32 32" fill="none" xmlns="http://www.w3.org/2000/svg">
<path d="M26.46 14.66C26.4587 14.6367 26.4587 14.6133 26.46 14.59C25.9705 13.256 25.3578 11.9704 24.63 10.75L23.74 9.24999C22.4046 7.02084 20.2384 5.41347 17.7179 4.78147C15.1975 4.14948 12.5291 4.54462 10.3 5.87999C8.07086 7.21535 6.46348 9.38155 5.83149 11.902C5.19949 14.4225 5.59464 17.0908 6.93 19.32" stroke="#FED700" stroke-linecap="round" stroke-linejoin="round"/>
<path d="M11.77 22.19C11.7699 21.0622 11.4622 19.9558 10.88 18.99L10 17.49C9.94 17.39 9.87 17.29 9.82 17.19C9.41947 16.4776 9.16318 15.6932 9.06577 14.8818C8.96836 14.0703 9.03173 13.2476 9.25227 12.4606C9.47281 11.6736 9.8462 10.9378 10.3511 10.2951C10.856 9.65244 11.4826 9.11551 12.195 8.71498C12.9074 8.31444 13.6918 8.05816 14.5032 7.96075C15.3147 7.86333 16.1374 7.92671 16.9244 8.14725C17.7114 8.36779 18.4472 8.74117 19.0899 9.24609C19.7325 9.751 20.2695 10.3776 20.67 11.09L21.56 12.58C22.4995 14.1344 23.2038 15.8193 23.65 17.58" stroke="#FED700" stroke-linecap="round" stroke-linejoin="round" stroke-dasharray="10 2"/>
<path d="M15.33 24.79V22.19C15.3209 20.4278 14.8373 18.7007 13.93 17.19L13 15.66C12.806 15.359 12.6746 15.022 12.6135 14.6691C12.5524 14.3163 12.5629 13.9547 12.6444 13.606C12.726 13.2573 12.8768 12.9285 13.0879 12.6393C13.2991 12.3501 13.5663 12.1063 13.8736 11.9224C14.1809 11.7386 14.5221 11.6184 14.8768 11.5691C15.2315 11.5198 15.5925 11.5424 15.9383 11.6354C16.2841 11.7285 16.6076 11.8902 16.8897 12.1109C17.1717 12.3316 17.4065 12.6067 17.58 12.92L18.47 14.41C19.3343 15.8428 19.9496 17.4117 20.29 19.05" stroke="#FED700" stroke-linecap="round" stroke-linejoin="round" stroke-dasharray="10 2"/>
<path d="M15.52 14.42L16.41 15.91C17.3926 17.5481 18.0069 19.3806 18.21 21.28" stroke="#FED700" stroke-linecap="round" stroke-linejoin="round"/>
<path d="M26.46 24H19.46" stroke="#FED700" stroke-linecap="round" stroke-linejoin="round"/>
<path d="M22.96 20.5V27.5" stroke="#FED700" stroke-linecap="round" stroke-linejoin="round"/>
</svg>
